<svg width="25" height="24" viewBox="0 0 25 24" fill="none" xmlns="http://www.w3.org/2000/svg">
<path d="M9.30002 20.67C9.11002 20.67 8.92002 20.6 8.77002 20.45C8.48002 20.16 8.48002 19.68 8.77002 19.39L15.29 12.87C15.77 12.39 15.77 11.61 15.29 11.13L8.77002 4.61C8.48002 4.32 8.48002 3.84 8.77002 3.55C9.06002 3.26 9.54002 3.26 9.83002 3.55L16.35 10.07C16.86 10.58 17.15 11.27 17.15 12C17.15 12.73 16.87 13.42 16.35 13.93L9.83002 20.45C9.68002 20.59 9.49002 20.67 9.30002 20.67Z" fill="#F9F9F9"/>
</svg>
