<svg width="96" height="55" viewBox="0 0 96 55" fill="none" xmlns="http://www.w3.org/2000/svg">
<g style="mix-blend-mode:luminosity">
<g clip-path="url(#clip0_90_973)">
<path d="M0.609985 0.0299988H96V54.06H0.609985V0.0299988Z" fill="white"/>
<path d="M85.4011 0.0299988H11.2089C5.35527 0.0299988 0.609985 4.06167 0.609985 9.035V45.055C0.609985 50.0283 5.35527 54.06 11.2089 54.06H85.4011C91.2547 54.06 96 50.0283 96 45.055V9.035C96 4.06167 91.2547 0.0299988 85.4011 0.0299988Z" fill="white"/>
<path d="M85.4003 1.15509H11.208C6.08614 1.15509 1.93402 4.68281 1.93402 9.03446V45.0545C1.93402 49.4061 6.08614 52.9338 11.208 52.9338H85.4003C90.5222 52.9338 94.6743 49.4061 94.6743 45.0545V9.03446C94.6743 4.68281 90.5222 1.15509 85.4003 1.15509Z" stroke="#333333" stroke-opacity="0.07" stroke-width="0.970471"/>
<path d="M86.8757 36.559H81.8569V38.3012H86.6914C88.7347 38.3012 90.0381 37.1936 90.0381 35.6105C90.0381 34.0275 88.9217 33.2359 87.0626 33.2359H84.8297C84.2741 33.2359 83.9028 32.9198 83.9028 32.4444C83.9028 31.969 84.2741 31.6529 84.8323 31.6529H89.1086L90.0381 29.9106H85.0167C82.9733 29.9106 81.6725 31.0183 81.6725 32.4444C81.6725 34.0275 82.789 34.819 84.6454 34.819H86.8783C87.4339 34.819 87.8052 35.1351 87.8052 35.6105C87.9921 36.2428 87.6209 36.559 86.8757 36.559ZM77.7675 36.559H72.7487V38.3012H77.5832C79.6266 38.3012 80.9274 37.1936 80.9274 35.6105C80.9274 34.0275 79.8109 33.2359 77.9545 33.2359H75.7216C75.166 33.2359 74.7947 32.9198 74.7947 32.4444C74.7947 31.969 75.166 31.6529 75.7242 31.6529H79.9978L80.9274 29.9106H75.9085C73.8652 29.9106 72.5644 31.0183 72.5644 32.4444C72.5644 34.0275 73.6808 34.819 75.5372 34.819H77.7701C78.3258 34.819 78.6971 35.1351 78.6971 35.6105C78.884 36.2428 78.3258 36.559 77.7675 36.559ZM71.261 31.4959V29.7537H63.4536V38.1421H71.261V36.402H65.6865V34.6598H71.0792V32.9198H65.6865V31.3367H71.261V31.4959ZM58.6217 31.4959C59.5513 31.4959 59.9225 31.969 59.9225 32.4444C59.9225 32.9198 59.5513 33.3951 58.6217 33.3951H55.8332V31.3367L58.6217 31.4959ZM55.8332 35.1351H56.9497L59.9225 38.1421H62.7111L59.3643 34.976C61.039 34.6598 61.9685 33.7113 61.9685 32.4444C61.9685 30.8614 60.6651 29.7537 58.6191 29.7537H53.416V38.1421H55.6489L55.8332 35.1351ZM49.8849 32.6014C49.8849 33.2359 49.5136 33.7113 48.5841 33.7113H45.6086V31.4937H48.3971C49.3267 31.4937 49.8849 31.9691 49.8849 32.6014ZM43.3783 29.7537V38.1421H45.6112V35.2921H48.5841C50.6274 35.2921 52.1152 34.1866 52.1152 32.4444C52.1152 30.8614 50.8144 29.5945 48.7684 29.5945L43.3783 29.7537ZM40.0316 38.1421H42.8201L38.9177 33.8683L42.8201 29.7537H40.0342L37.6195 32.4444L35.2023 29.7537H32.4138L36.3187 33.8683L32.4138 37.9851H35.2023L37.6169 35.2943L40.0316 38.1421ZM31.6686 31.4937V29.7537H23.8586V38.1421H31.666V36.402H26.0915V34.6598H31.4816V32.9198H26.0915V31.3367H31.6686V31.4937ZM76.838 21.3631L80.743 26.4284H83.5315V18.04H81.2986V23.5785L80.743 22.7869L77.2119 18.04H74.2365V26.4284H76.4694V20.7307L76.838 21.3631ZM67.1717 21.2061L67.9168 19.4639L68.6594 21.2061L69.5889 23.1053H66.2422L67.1717 21.2061ZM71.0766 26.4284H73.4913L69.2176 18.04H66.2422L61.9685 26.4284H64.3831L65.3127 24.6884H70.1471L71.0766 26.4284ZM60.6651 26.4284L61.5946 24.6884H61.039C59.3643 24.6884 58.4348 23.7376 58.4348 22.3138V22.1546C58.4348 20.7307 59.3643 19.78 61.039 19.78H63.4536V18.04H60.852C57.8792 18.04 56.2045 19.78 56.2045 22.1546V22.3138C56.2045 24.8453 57.8792 26.4284 60.6651 26.4284ZM52.3021 26.4284H54.5324V18.197H52.2995L52.3021 26.4284ZM47.4676 19.78C48.3971 19.78 48.7684 20.2554 48.7684 20.7307C48.7684 21.2061 48.3972 21.6814 47.4702 21.6814H44.6791V19.6208L47.4676 19.78ZM44.6817 23.4237H45.7982L48.771 26.4306H51.5596L48.2128 23.2623C49.8849 22.9461 50.8144 21.9976 50.8144 20.7307C50.8144 19.1477 49.5136 18.04 47.4676 18.04H42.2671V26.4284H44.4974L44.6817 23.4237ZM40.5924 19.7822V18.0422H32.785V26.4306H40.5924V24.6906H35.0153V22.9483H40.408V21.2083H35.0153V19.6208H40.5924V19.7778V19.7822ZM23.6769 26.4306H25.7228L28.5088 19.6253V26.4306H30.7417V18.04H27.0236L24.7907 23.7376L22.5604 18.04H18.8398V26.4284H21.0727V19.623L23.6743 26.4284L23.6769 26.4306ZM11.5907 21.2061L12.3358 19.4639L13.0784 21.2061L14.0079 23.1053H10.6612L11.5907 21.2061ZM15.4957 26.4284H17.9103L13.6366 18.04H10.8481L6.57185 26.4284H8.9865L9.9186 24.6884H14.7505L15.4957 26.4284Z" fill="#2F6DC9"/>
</g>
</g>
<defs>
<clipPath id="clip0_90_973">
<rect x="0.609985" y="0.0299988" width="95.39" height="54.03" rx="4" fill="white"/>
</clipPath>
</defs>
</svg>
