<svg width="96" height="55" viewBox="0 0 96 55" fill="none" xmlns="http://www.w3.org/2000/svg">
<g style="mix-blend-mode:luminosity">
<g clip-path="url(#clip0_90_943)">
<path d="M-1.52588e-05 0H95.39V54.03H-1.52588e-05V0Z" fill="white"/>
<path d="M84.7911 0H10.5989C4.74527 0 -1.52588e-05 4.03168 -1.52588e-05 9.005V45.025C-1.52588e-05 49.9983 4.74527 54.03 10.5989 54.03H84.7911C90.6447 54.03 95.39 49.9983 95.39 45.025V9.005C95.39 4.03168 90.6447 0 84.7911 0Z" fill="white"/>
<path d="M84.7903 1.1251H10.598C5.47614 1.1251 1.32402 4.65282 1.32402 9.00447V45.0245C1.32402 49.3761 5.47614 52.9038 10.598 52.9038H84.7903C89.9122 52.9038 94.0643 49.3761 94.0643 45.0245V9.00447C94.0643 4.65282 89.9122 1.1251 84.7903 1.1251Z" stroke="#333333" stroke-opacity="0.07" stroke-width="0.970471"/>
<path d="M37.2415 39.7248C46.2852 39.7248 53.6165 33.8558 53.6165 26.6161C53.6165 19.3764 46.2852 13.5075 37.2415 13.5075C28.1979 13.5075 20.8665 19.3764 20.8665 26.6161C20.8665 33.8558 28.1979 39.7248 37.2415 39.7248Z" fill="#D82F2C"/>
<path d="M59.0746 39.7248C68.1182 39.7248 75.4496 33.8558 75.4496 26.6161C75.4496 19.3764 68.1182 13.5075 59.0746 13.5075C50.0309 13.5075 42.6996 19.3764 42.6996 26.6161C42.6996 33.8558 50.0309 39.7248 59.0746 39.7248Z" fill="#EAA33F"/>
<path fill-rule="evenodd" clip-rule="evenodd" d="M48.1579 36.3875C51.508 33.9871 53.6162 30.4989 53.6162 26.6166C53.6162 22.7342 51.508 19.2462 48.1579 16.8459C44.8079 19.2462 42.6996 22.7342 42.6996 26.6166C42.6996 30.4989 44.8079 33.9871 48.1579 36.3875Z" fill="#ED6A2D"/>
</g>
</g>
<defs>
<clipPath id="clip0_90_943">
<rect x="-1.52588e-05" width="95.39" height="54.03" rx="4" fill="white"/>
</clipPath>
</defs>
</svg>
