<svg width="96" height="55" viewBox="0 0 96 55" fill="none" xmlns="http://www.w3.org/2000/svg">
<g style="mix-blend-mode:luminosity">
<g clip-path="url(#clip0_90_951)">
<path d="M0.609985 0H96V54.03H0.609985V0Z" fill="white"/>
<path d="M85.4011 0H11.2089C5.35527 0 0.609985 4.03168 0.609985 9.005V45.025C0.609985 49.9983 5.35527 54.03 11.2089 54.03H85.4011C91.2547 54.03 96 49.9983 96 45.025V9.005C96 4.03168 91.2547 0 85.4011 0Z" fill="white"/>
<path d="M85.4003 1.1251H11.208C6.08614 1.1251 1.93402 4.65282 1.93402 9.00447V45.0245C1.93402 49.3761 6.08614 52.9038 11.208 52.9038H85.4003C90.5222 52.9038 94.6743 49.3761 94.6743 45.0245V9.00447C94.6743 4.65282 90.5222 1.1251 85.4003 1.1251Z" stroke="#333333" stroke-opacity="0.07" stroke-width="0.970471"/>
<path d="M41.4775 20.5234L33.5403 35.5764H28.3134L24.4692 23.6695C24.4381 23.3869 24.3148 23.1156 24.1112 22.882C23.9076 22.6484 23.6307 22.4605 23.3077 22.3368C21.7746 21.7567 20.1591 21.324 18.4956 21.0478V20.6108H26.7924C27.3413 20.6159 27.8704 20.7745 28.2855 21.0585C28.7006 21.3424 28.975 21.7334 29.0601 22.162L31.1066 30.901L36.1953 20.6545L41.4775 20.5234ZM61.749 30.6607C61.749 26.7062 54.8351 26.4878 54.8904 24.6962C54.8904 24.1719 55.5541 23.5821 56.9646 23.451C58.6231 23.3183 60.2962 23.5449 61.8043 24.1064L62.6616 20.9167C61.1903 20.4915 59.6372 20.2697 58.0708 20.2612C53.2311 20.2612 49.7741 22.2931 49.7741 25.2424C49.7741 27.4272 52.2078 28.607 54.0607 29.328C55.9136 30.0489 56.605 30.5514 56.605 31.2069C56.605 32.2119 55.084 32.6488 53.6735 32.6707C51.921 32.7072 50.1867 32.3836 48.6402 31.7312L47.6723 35.0302C49.4364 35.5661 51.3131 35.8331 53.2034 35.8167C58.3473 35.8167 61.6937 33.8068 61.7213 30.6607H61.749ZM74.4982 35.5764H79.006L75.0789 20.5234H70.9306C70.4795 20.523 70.039 20.6289 69.6645 20.8273C69.2901 21.0258 68.9991 21.3079 68.8288 21.6377L61.5001 35.5764H66.644L67.6396 33.3916H73.9174L74.4982 35.5764ZM68.9671 30.2456L71.5667 24.6089L73.1154 30.2237L68.9671 30.2456ZM48.3913 20.5234L44.3536 35.5764H39.5416L43.5793 20.5234H48.3913Z" fill="#1434CB"/>
</g>
</g>
<defs>
<clipPath id="clip0_90_951">
<rect x="0.609985" width="95.39" height="54.03" rx="4" fill="white"/>
</clipPath>
</defs>
</svg>
